<mxfile host="app.diagrams.net" agent="Mozilla/5.0 (Windows NT 10.0; Win64; x64) AppleWebKit/537.36 (KHTML, like Gecko) Chrome/138.0.0.0 Safari/537.36" version="28.0.7">
  <diagram name="PÃ¡gina-1" id="tnOrA7bvQaaSk3d734bg">
    <mxGraphModel dx="786" dy="417" grid="1" gridSize="10" guides="1" tooltips="1" connect="1" arrows="1" fold="1" page="1" pageScale="1" pageWidth="827" pageHeight="1169" math="0" shadow="0">
      <root>
        <mxCell id="0" />
        <mxCell id="1" parent="0" />
        <mxCell id="hHunxi8lrOfnlWv_FfNE-15" style="edgeStyle=orthogonalEdgeStyle;rounded=0;orthogonalLoop=1;jettySize=auto;html=1;exitX=0;exitY=0.25;exitDx=0;exitDy=0;entryX=1;entryY=0.5;entryDx=0;entryDy=0;" edge="1" parent="1" source="hHunxi8lrOfnlWv_FfNE-1" target="hHunxi8lrOfnlWv_FfNE-2">
          <mxGeometry relative="1" as="geometry" />
        </mxCell>
        <mxCell id="hHunxi8lrOfnlWv_FfNE-16" value="GPIO36" style="edgeLabel;html=1;align=center;verticalAlign=middle;resizable=0;points=[];" vertex="1" connectable="0" parent="hHunxi8lrOfnlWv_FfNE-15">
          <mxGeometry x="0.7373" relative="1" as="geometry">
            <mxPoint as="offset" />
          </mxGeometry>
        </mxCell>
        <mxCell id="hHunxi8lrOfnlWv_FfNE-17" style="edgeStyle=orthogonalEdgeStyle;rounded=0;orthogonalLoop=1;jettySize=auto;html=1;exitX=0;exitY=0.5;exitDx=0;exitDy=0;entryX=1;entryY=0.5;entryDx=0;entryDy=0;" edge="1" parent="1" source="hHunxi8lrOfnlWv_FfNE-1" target="hHunxi8lrOfnlWv_FfNE-3">
          <mxGeometry relative="1" as="geometry" />
        </mxCell>
        <mxCell id="hHunxi8lrOfnlWv_FfNE-19" value="GPIO32" style="edgeLabel;html=1;align=center;verticalAlign=middle;resizable=0;points=[];" vertex="1" connectable="0" parent="hHunxi8lrOfnlWv_FfNE-17">
          <mxGeometry x="0.3744" relative="1" as="geometry">
            <mxPoint as="offset" />
          </mxGeometry>
        </mxCell>
        <mxCell id="hHunxi8lrOfnlWv_FfNE-18" style="edgeStyle=orthogonalEdgeStyle;rounded=0;orthogonalLoop=1;jettySize=auto;html=1;exitX=0;exitY=0.5;exitDx=0;exitDy=0;entryX=1;entryY=0.75;entryDx=0;entryDy=0;" edge="1" parent="1" source="hHunxi8lrOfnlWv_FfNE-1" target="hHunxi8lrOfnlWv_FfNE-4">
          <mxGeometry relative="1" as="geometry" />
        </mxCell>
        <mxCell id="hHunxi8lrOfnlWv_FfNE-20" value="GPIO33" style="edgeLabel;html=1;align=center;verticalAlign=middle;resizable=0;points=[];" vertex="1" connectable="0" parent="hHunxi8lrOfnlWv_FfNE-18">
          <mxGeometry x="0.7529" y="3" relative="1" as="geometry">
            <mxPoint as="offset" />
          </mxGeometry>
        </mxCell>
        <mxCell id="hHunxi8lrOfnlWv_FfNE-21" style="edgeStyle=orthogonalEdgeStyle;rounded=0;orthogonalLoop=1;jettySize=auto;html=1;exitX=1;exitY=0.5;exitDx=0;exitDy=0;entryX=0;entryY=0.5;entryDx=0;entryDy=0;" edge="1" parent="1" source="hHunxi8lrOfnlWv_FfNE-1" target="hHunxi8lrOfnlWv_FfNE-10">
          <mxGeometry relative="1" as="geometry" />
        </mxCell>
        <mxCell id="hHunxi8lrOfnlWv_FfNE-22" value="GPIO25" style="edgeLabel;html=1;align=center;verticalAlign=middle;resizable=0;points=[];" vertex="1" connectable="0" parent="hHunxi8lrOfnlWv_FfNE-21">
          <mxGeometry x="0.6078" y="1" relative="1" as="geometry">
            <mxPoint as="offset" />
          </mxGeometry>
        </mxCell>
        <mxCell id="hHunxi8lrOfnlWv_FfNE-24" style="edgeStyle=orthogonalEdgeStyle;rounded=0;orthogonalLoop=1;jettySize=auto;html=1;exitX=1;exitY=0.75;exitDx=0;exitDy=0;entryX=0.5;entryY=0;entryDx=0;entryDy=0;" edge="1" parent="1" source="hHunxi8lrOfnlWv_FfNE-1" target="hHunxi8lrOfnlWv_FfNE-11">
          <mxGeometry relative="1" as="geometry" />
        </mxCell>
        <mxCell id="hHunxi8lrOfnlWv_FfNE-27" value="SDA - GPIO21" style="edgeLabel;html=1;align=center;verticalAlign=middle;resizable=0;points=[];" vertex="1" connectable="0" parent="hHunxi8lrOfnlWv_FfNE-24">
          <mxGeometry x="-0.4889" relative="1" as="geometry">
            <mxPoint as="offset" />
          </mxGeometry>
        </mxCell>
        <mxCell id="hHunxi8lrOfnlWv_FfNE-29" style="edgeStyle=orthogonalEdgeStyle;rounded=0;orthogonalLoop=1;jettySize=auto;html=1;exitX=0.75;exitY=1;exitDx=0;exitDy=0;entryX=0;entryY=0.5;entryDx=0;entryDy=0;" edge="1" parent="1" source="hHunxi8lrOfnlWv_FfNE-1" target="hHunxi8lrOfnlWv_FfNE-11">
          <mxGeometry relative="1" as="geometry" />
        </mxCell>
        <mxCell id="hHunxi8lrOfnlWv_FfNE-30" value="SCL - GPIO22" style="edgeLabel;html=1;align=center;verticalAlign=middle;resizable=0;points=[];" vertex="1" connectable="0" parent="hHunxi8lrOfnlWv_FfNE-29">
          <mxGeometry x="0.1592" y="7" relative="1" as="geometry">
            <mxPoint as="offset" />
          </mxGeometry>
        </mxCell>
        <mxCell id="hHunxi8lrOfnlWv_FfNE-31" style="edgeStyle=orthogonalEdgeStyle;rounded=0;orthogonalLoop=1;jettySize=auto;html=1;exitX=0.5;exitY=1;exitDx=0;exitDy=0;entryX=0.5;entryY=0;entryDx=0;entryDy=0;" edge="1" parent="1" source="hHunxi8lrOfnlWv_FfNE-1" target="hHunxi8lrOfnlWv_FfNE-6">
          <mxGeometry relative="1" as="geometry">
            <Array as="points">
              <mxPoint x="415" y="400" />
              <mxPoint x="190" y="400" />
            </Array>
          </mxGeometry>
        </mxCell>
        <mxCell id="hHunxi8lrOfnlWv_FfNE-40" value="GPIO14" style="edgeLabel;html=1;align=center;verticalAlign=middle;resizable=0;points=[];" vertex="1" connectable="0" parent="hHunxi8lrOfnlWv_FfNE-31">
          <mxGeometry x="0.8447" relative="1" as="geometry">
            <mxPoint as="offset" />
          </mxGeometry>
        </mxCell>
        <mxCell id="hHunxi8lrOfnlWv_FfNE-32" style="edgeStyle=orthogonalEdgeStyle;rounded=0;orthogonalLoop=1;jettySize=auto;html=1;exitX=0.5;exitY=1;exitDx=0;exitDy=0;entryX=0.5;entryY=0;entryDx=0;entryDy=0;" edge="1" parent="1" source="hHunxi8lrOfnlWv_FfNE-1" target="hHunxi8lrOfnlWv_FfNE-9">
          <mxGeometry relative="1" as="geometry">
            <Array as="points">
              <mxPoint x="415" y="400" />
              <mxPoint x="310" y="400" />
            </Array>
          </mxGeometry>
        </mxCell>
        <mxCell id="hHunxi8lrOfnlWv_FfNE-39" value="GPIO27" style="edgeLabel;html=1;align=center;verticalAlign=middle;resizable=0;points=[];" vertex="1" connectable="0" parent="hHunxi8lrOfnlWv_FfNE-32">
          <mxGeometry x="0.7639" y="-2" relative="1" as="geometry">
            <mxPoint as="offset" />
          </mxGeometry>
        </mxCell>
        <mxCell id="hHunxi8lrOfnlWv_FfNE-33" style="edgeStyle=orthogonalEdgeStyle;rounded=0;orthogonalLoop=1;jettySize=auto;html=1;exitX=0.5;exitY=1;exitDx=0;exitDy=0;entryX=0.5;entryY=0;entryDx=0;entryDy=0;" edge="1" parent="1" source="hHunxi8lrOfnlWv_FfNE-1" target="hHunxi8lrOfnlWv_FfNE-8">
          <mxGeometry relative="1" as="geometry">
            <Array as="points">
              <mxPoint x="415" y="400" />
              <mxPoint x="430" y="400" />
            </Array>
          </mxGeometry>
        </mxCell>
        <mxCell id="hHunxi8lrOfnlWv_FfNE-37" value="GPIO26" style="edgeLabel;html=1;align=center;verticalAlign=middle;resizable=0;points=[];" vertex="1" connectable="0" parent="hHunxi8lrOfnlWv_FfNE-33">
          <mxGeometry x="0.6" y="1" relative="1" as="geometry">
            <mxPoint as="offset" />
          </mxGeometry>
        </mxCell>
        <mxCell id="hHunxi8lrOfnlWv_FfNE-34" style="edgeStyle=orthogonalEdgeStyle;rounded=0;orthogonalLoop=1;jettySize=auto;html=1;exitX=0.5;exitY=1;exitDx=0;exitDy=0;entryX=0.5;entryY=0;entryDx=0;entryDy=0;" edge="1" parent="1" source="hHunxi8lrOfnlWv_FfNE-1" target="hHunxi8lrOfnlWv_FfNE-7">
          <mxGeometry relative="1" as="geometry">
            <Array as="points">
              <mxPoint x="415" y="400" />
              <mxPoint x="560" y="400" />
            </Array>
          </mxGeometry>
        </mxCell>
        <mxCell id="hHunxi8lrOfnlWv_FfNE-41" value="GPIO13" style="edgeLabel;html=1;align=center;verticalAlign=middle;resizable=0;points=[];" vertex="1" connectable="0" parent="hHunxi8lrOfnlWv_FfNE-34">
          <mxGeometry x="0.7855" y="-2" relative="1" as="geometry">
            <mxPoint as="offset" />
          </mxGeometry>
        </mxCell>
        <mxCell id="hHunxi8lrOfnlWv_FfNE-1" value="ESP32 S3&lt;div&gt;MCU&lt;/div&gt;" style="rounded=0;whiteSpace=wrap;html=1;" vertex="1" parent="1">
          <mxGeometry x="355" y="160" width="120" height="100" as="geometry" />
        </mxCell>
        <mxCell id="hHunxi8lrOfnlWv_FfNE-2" value="Sensor de temperatura - NTC" style="rounded=0;whiteSpace=wrap;html=1;" vertex="1" parent="1">
          <mxGeometry x="40" y="40" width="120" height="60" as="geometry" />
        </mxCell>
        <mxCell id="hHunxi8lrOfnlWv_FfNE-3" value="Push buttom 1" style="rounded=0;whiteSpace=wrap;html=1;" vertex="1" parent="1">
          <mxGeometry x="40" y="180" width="120" height="60" as="geometry" />
        </mxCell>
        <mxCell id="hHunxi8lrOfnlWv_FfNE-4" value="Push buttom 2" style="rounded=0;whiteSpace=wrap;html=1;" vertex="1" parent="1">
          <mxGeometry x="40" y="310" width="120" height="60" as="geometry" />
        </mxCell>
        <mxCell id="hHunxi8lrOfnlWv_FfNE-13" style="edgeStyle=orthogonalEdgeStyle;rounded=0;orthogonalLoop=1;jettySize=auto;html=1;exitX=0.5;exitY=1;exitDx=0;exitDy=0;entryX=0.5;entryY=0;entryDx=0;entryDy=0;" edge="1" parent="1" source="hHunxi8lrOfnlWv_FfNE-5" target="hHunxi8lrOfnlWv_FfNE-1">
          <mxGeometry relative="1" as="geometry" />
        </mxCell>
        <mxCell id="hHunxi8lrOfnlWv_FfNE-14" value="3.3V" style="edgeLabel;html=1;align=center;verticalAlign=middle;resizable=0;points=[];" vertex="1" connectable="0" parent="hHunxi8lrOfnlWv_FfNE-13">
          <mxGeometry x="0.1111" y="-2" relative="1" as="geometry">
            <mxPoint as="offset" />
          </mxGeometry>
        </mxCell>
        <mxCell id="hHunxi8lrOfnlWv_FfNE-5" value="Fonte&lt;div&gt;3.3V&lt;/div&gt;" style="rounded=0;whiteSpace=wrap;html=1;" vertex="1" parent="1">
          <mxGeometry x="370" y="10" width="90" height="60" as="geometry" />
        </mxCell>
        <mxCell id="hHunxi8lrOfnlWv_FfNE-6" value="LED1" style="rounded=0;whiteSpace=wrap;html=1;" vertex="1" parent="1">
          <mxGeometry x="150" y="460" width="80" height="60" as="geometry" />
        </mxCell>
        <mxCell id="hHunxi8lrOfnlWv_FfNE-7" value="LED4" style="rounded=0;whiteSpace=wrap;html=1;" vertex="1" parent="1">
          <mxGeometry x="520" y="460" width="80" height="60" as="geometry" />
        </mxCell>
        <mxCell id="hHunxi8lrOfnlWv_FfNE-8" value="LED3" style="rounded=0;whiteSpace=wrap;html=1;" vertex="1" parent="1">
          <mxGeometry x="390" y="460" width="80" height="60" as="geometry" />
        </mxCell>
        <mxCell id="hHunxi8lrOfnlWv_FfNE-9" value="LED2" style="rounded=0;whiteSpace=wrap;html=1;" vertex="1" parent="1">
          <mxGeometry x="270" y="460" width="80" height="60" as="geometry" />
        </mxCell>
        <mxCell id="hHunxi8lrOfnlWv_FfNE-10" value="Buzzer" style="rounded=0;whiteSpace=wrap;html=1;" vertex="1" parent="1">
          <mxGeometry x="630" y="80" width="120" height="60" as="geometry" />
        </mxCell>
        <mxCell id="hHunxi8lrOfnlWv_FfNE-11" value="LCD I2C" style="rounded=0;whiteSpace=wrap;html=1;" vertex="1" parent="1">
          <mxGeometry x="640" y="280" width="120" height="60" as="geometry" />
        </mxCell>
      </root>
    </mxGraphModel>
  </diagram>
</mxfile>
